<svg width="35" height="35" viewBox="0 0 35 35" fill="none" xmlns="http://www.w3.org/2000/svg">
<path d="M19.1195 34.9812C21.1122 32.0951 22.6651 28.9289 23.7272 25.5864C26.1577 25.9677 28.4985 26.7877 30.6356 28.0063L31.2628 28.3953C28.2876 32.1606 23.8983 34.5411 19.1195 34.9812Z" fill="#909090"/>
<path d="M21.8907 22.7688C20.4331 22.6019 18.9671 22.5181 17.5 22.5179C16.0329 22.5181 14.567 22.6019 13.1094 22.7688C12.7997 21.4498 12.6025 20.1068 12.5198 18.7545H22.4803C22.3976 20.1068 22.2004 21.4498 21.8907 22.7688Z" fill="#909090"/>
<path d="M17.5 9.97314C16.2639 9.97204 15.0288 9.90802 13.7993 9.78122C14.7037 7.08044 15.9473 4.50535 17.5 2.11762C19.0527 4.50535 20.2962 7.08051 21.2007 9.78122C19.9712 9.90802 18.7361 9.97204 17.5 9.97314Z" fill="#909090"/>
<path d="M24.9791 16.2454C24.9027 14.7652 24.7025 13.2939 24.3807 11.8471C27.0517 11.4035 29.6204 10.4803 31.9628 9.12239L32.6716 8.68084C34.017 10.9907 34.8136 13.5788 35 16.2454H24.9791Z" fill="#909090"/>
<path d="M32.6716 26.3176L31.9628 25.876C29.6208 24.5159 27.0521 23.5907 24.3807 23.145C24.7021 21.7006 24.9023 20.232 24.9791 18.7544H35C34.8134 21.4205 34.0168 24.0081 32.6716 26.3176Z" fill="#909090"/>
<path d="M12.5197 16.2454C12.6031 14.8929 12.8012 13.5499 13.1117 12.231C16.0294 12.5643 18.9754 12.5643 21.8931 12.231C22.202 13.5502 22.3984 14.8931 22.4802 16.2454H12.5197Z" fill="#909090"/>
<path d="M3.03707 25.876L2.32826 26.3176C0.983125 24.0081 0.186555 21.4205 0 18.7544H10.0208C10.0977 20.232 10.2979 21.7007 10.6192 23.145C7.94784 23.5907 5.37907 24.5159 3.03707 25.876Z" fill="#909090"/>
<path d="M11.2727 9.41235C8.84254 9.03094 6.50178 8.21143 4.36434 6.99368L3.73712 6.60352C6.71215 2.83802 11.1017 0.457793 15.8805 0.0187492C13.8875 2.90432 12.3346 6.0701 11.2727 9.41235Z" fill="#909090"/>
<path d="M17.5 32.8813C15.9475 30.4939 14.704 27.9193 13.7993 25.219C15.0287 25.0915 16.2639 25.0275 17.5 25.0271C18.7361 25.0275 19.9712 25.0916 21.2007 25.219C20.296 27.9193 19.0525 30.4939 17.5 32.8813Z" fill="#909090"/>
<path d="M30.6357 6.99368C28.4982 8.21136 26.1575 9.03086 23.7272 9.41235C22.6643 6.06987 21.1101 2.9041 19.1158 0.018816C23.8946 0.45786 28.2841 2.83809 31.2591 6.60359L30.6357 6.99368Z" fill="#909090"/>
<path d="M3.74084 28.3953L4.36431 28.0063C6.50146 26.7877 8.84229 25.9678 11.2727 25.5864C12.336 28.9292 13.8902 32.0953 15.8842 34.9812C11.1054 34.5412 6.71617 32.1607 3.74084 28.3953Z" fill="#909090"/>
<path d="M10.0208 16.2454H0C0.186334 13.5788 0.982905 10.9907 2.32834 8.68084L3.03714 9.12239C5.37959 10.4803 7.94828 11.4034 10.6192 11.8471C10.2973 13.294 10.0972 14.7652 10.0208 16.2454Z" fill="#909090"/>
</svg>
