<svg width="35" height="35" viewBox="0 0 35 35" fill="none" xmlns="http://www.w3.org/2000/svg">
<path d="M17.5 0C10.5106 0 4.82434 5.68627 4.82434 12.6756C4.82434 21.3496 16.1678 34.0835 16.6508 34.6214C17.1044 35.1266 17.8964 35.1257 18.3492 34.6214C18.8322 34.0835 30.1757 21.3496 30.1757 12.6756C30.1756 5.68627 24.4894 0 17.5 0ZM17.5 19.0531C13.9835 19.0531 11.1226 16.1921 11.1226 12.6756C11.1226 9.15906 13.9835 6.29822 17.5 6.29822C21.0165 6.29822 23.8773 9.15913 23.8773 12.6757C23.8773 16.1922 21.0165 19.0531 17.5 19.0531Z" fill="#909090"/>
</svg>
