<svg width="35" height="35" viewBox="0 0 35 35" fill="none" xmlns="http://www.w3.org/2000/svg">
<g clip-path="url(#clip0)">
<path d="M34.0474 25.6865L29.163 20.8021C27.4186 19.0577 24.4531 19.7555 23.7554 22.0232C23.232 23.5932 21.4876 24.4655 19.9176 24.1165C16.4288 23.2443 11.7189 18.7088 10.8467 15.0456C10.3234 13.4755 11.37 11.7311 12.94 11.2078C15.2077 10.5101 15.9055 7.54458 14.1611 5.80017L9.27673 0.915817C7.8812 -0.305272 5.78791 -0.305272 4.56682 0.915817L1.25244 4.2302C-2.06195 7.71903 1.60132 16.9644 9.80006 25.1631C17.9988 33.3619 27.2442 37.1997 30.733 33.7108L34.0474 30.3964C35.2685 29.0009 35.2685 26.9076 34.0474 25.6865Z" fill="#919191"/>
</g>
<defs>
<clipPath id="clip0">
<rect width="35" height="35" fill="white"/>
</clipPath>
</defs>
</svg>
