<svg width="35" height="35" viewBox="0 0 35 35" fill="none" xmlns="http://www.w3.org/2000/svg">
<path d="M23.2006 17.6794L35 25.1388V9.90503L23.2006 17.6794Z" fill="#909090"/>
<path d="M0 9.90503V25.1388L11.7994 17.6794L0 9.90503Z" fill="#909090"/>
<path d="M32.8125 5.46875H2.18749C1.09593 5.46875 0.229675 6.2825 0.0656128 7.33031L17.5 18.8169L34.9344 7.33031C34.7703 6.2825 33.9041 5.46875 32.8125 5.46875Z" fill="#909090"/>
<path d="M21.1969 19.0007L18.1016 21.0395C17.9178 21.1598 17.71 21.2188 17.5 21.2188C17.29 21.2188 17.0822 21.1598 16.8984 21.0395L13.8031 18.9985L0.0700073 27.6851C0.238445 28.7242 1.10032 29.5313 2.18751 29.5313H32.8125C33.8997 29.5313 34.7616 28.7242 34.93 27.6851L21.1969 19.0007Z" fill="#909090"/>
</svg>
